PathFileType	4	(X/Y/Z)	C:/Users/opensim2020/Desktop/walking_exp_matlab/subject03_walking14_straight_04.trc	
DataRate	CameraRate	NumFrames	NumMarkers	Units	OrigDataRate	OrigDataStartFrame	OrigNumFrames	
100.00	100.00	7	47	mm	100.00	2266	177	
Frame#	Time	LFHD			RFHD			LBHD			RBHD			C7			T10			CLAV			STRN			RBAK			LSHO			LUPA			LELB			LFRM			LWRA			LWRB			LFIN			RSHO			RUPA			RELB			RFRM			RWRA			RWRB			RFIN			LASI			RASI			LPSI			RPSI			LTHI			LKNE			LTIB			LANK			LHEE			LTOE			RTHI			RKNE			RTIB			RANK			RHEE			RTOE			*39			*40			*41			*42			*43			*44			*45			*46			
		X1	Y1	Z1	X2	Y2	Z2	X3	Y3	Z3	X4	Y4	Z4	X5	Y5	Z5	X6	Y6	Z6	X7	Y7	Z7	X8	Y8	Z8	X9	Y9	Z9	X10	Y10	Z10	X11	Y11	Z11	X12	Y12	Z12	X13	Y13	Z13	X14	Y14	Z14	X15	Y15	Z15	X16	Y16	Z16	X17	Y17	Z17	X18	Y18	Z18	X19	Y19	Z19	X20	Y20	Z20	X21	Y21	Z21	X22	Y22	Z22	X23	Y23	Z23	X24	Y24	Z24	X25	Y25	Z25	X26	Y26	Z26	X27	Y27	Z27	X28	Y28	Z28	X29	Y29	Z29	X30	Y30	Z30	X31	Y31	Z31	X32	Y32	Z32	X33	Y33	Z33	X34	Y34	Z34	X35	Y35	Z35	X36	Y36	Z36	X37	Y37	Z37	X38	Y38	Z38	X39	Y39	Z39	X40	Y40	Z40	X41	Y41	Z41	X42	Y42	Z42	X43	Y43	Z43	X44	Y44	Z44	X45	Y45	Z45	X46	Y46	Z46	X47	Y47	Z47	

89	0.880	-919.38409	-119.44582	1603.34753	-1051.57227	-107.50279	1608.34302	-912.77374	9.65430	1564.44763	-1043.11743	16.56037	1568.41577	-967.45367	49.56817	1403.03491	-968.54407	82.67711	1088.88171	-976.25610	-70.37914	1325.64758	-966.02393	-115.58256	1162.17273	-1052.39612	109.85566	1223.45081	-820.21204	-34.90941	1368.87292	-740.41785	-73.90192	1185.84045	-728.13770	-122.57850	1072.82202	-741.82971	-203.76294	973.15320	-785.94281	-272.15216	881.78656	-732.35724	-258.66772	873.42456	-750.91931	-315.10764	814.42773	-1132.02161	-8.54671	1346.80920	-1200.27979	22.36663	1125.08667	-1216.40796	24.37063	1012.78790	-1224.68152	37.36340	876.51740	-1199.45300	22.81101	773.59369	-1236.37292	62.35186	779.33563	-1233.02856	55.43233	703.76300	-843.81958	-77.57073	929.45490	-1081.75305	-90.86265	925.58954	-905.67487	79.64008	952.14941	-1053.44727	72.10810	949.76746	-812.13562	19.87421	634.25684	-851.38965	53.72228	460.13824	-850.19080	151.57278	285.08572	-892.55255	221.68956	85.30078	-928.03577	268.92062	58.94582	-922.32861	78.02814	28.70642	-1133.43127	-102.76141	633.80981	-1096.83228	-183.22668	474.34979	-1102.45959	-202.71642	287.19620	-1062.70459	-262.71524	76.46389	-1005.09387	-233.76462	38.41895	-1053.44434	-408.45956	69.95407																								 
90	0.890	-920.25458	-132.13097	1601.40906	-1052.39697	-120.06256	1606.31616	-913.44592	-3.22849	1562.31262	-1043.76538	3.88692	1566.12988	-968.58838	36.74041	1401.05029	-970.34668	69.81161	1086.73364	-976.72852	-83.41994	1323.43896	-965.81000	-128.41078	1159.91150	-1053.69666	96.48950	1221.19153	-820.93561	-47.23871	1366.85962	-740.88373	-87.35329	1184.53503	-728.39264	-137.51532	1072.33142	-743.13776	-221.66870	975.61243	-788.52814	-292.89539	887.19232	-735.00952	-279.80090	877.73486	-754.43945	-338.29803	821.03302	-1132.78137	-22.22065	1344.47546	-1201.16187	10.65242	1123.21204	-1217.53406	14.39793	1010.99390	-1226.14636	29.74310	874.97260	-1201.20386	16.88282	771.65948	-1237.99365	56.46367	778.22839	-1234.36084	51.62431	702.33960	-843.40308	-88.71351	927.32355	-1081.58801	-104.74922	923.09180	-907.82965	67.75803	949.94739	-1055.39050	58.53298	947.37744	-812.41364	11.60254	633.54193	-851.45941	47.55912	459.74841	-850.42737	147.89032	285.99060	-892.71844	220.79710	86.99619	-928.12811	268.33539	61.31849	-922.34808	77.97925	28.61941	-1134.45715	-112.97265	629.82574	-1096.63037	-196.01004	471.72589	-1103.90198	-223.53262	287.47198	-1065.75562	-292.78360	79.33233	-1008.76581	-265.12296	39.12671	-1054.83081	-439.14249	78.66669																								 
91	0.900	-921.08545	-144.85905	1599.58936	-1053.25342	-132.68129	1604.38403	-914.22473	-15.90379	1560.15137	-1044.57739	-8.78758	1564.00256	-969.76300	23.63389	1398.84351	-972.22534	56.75644	1084.52869	-977.20807	-96.55896	1321.31409	-965.67676	-141.23026	1157.64941	-1054.91736	82.92560	1218.86890	-821.75989	-59.64769	1364.87268	-741.43347	-100.53648	1183.20752	-728.76605	-152.04605	1071.76184	-744.47308	-238.91248	977.95032	-791.16455	-312.88065	892.61609	-737.65204	-300.20865	882.02942	-757.81891	-360.64258	827.76868	-1133.71948	-36.00024	1342.31543	-1202.03479	-1.29182	1121.35266	-1218.64258	4.04745	1009.32471	-1227.52612	21.62620	873.50739	-1202.94629	10.42658	769.91437	-1239.58679	50.01735	777.24036	-1235.71667	47.13339	701.17230	-843.50208	-100.46119	925.44440	-1081.50586	-118.62644	920.62122	-909.92346	55.66598	947.74298	-1057.36462	44.44701	945.00366	-812.51862	2.89659	632.87079	-851.37146	40.80258	459.14679	-850.43030	143.58495	286.93317	-892.55011	219.67624	88.99232	-927.91412	267.63260	63.99416	-922.39941	78.01386	28.43099	-1135.78174	-123.53020	626.03271	-1096.80566	-209.83913	469.69196	-1105.28040	-243.65157	288.16788	-1067.76135	-319.62198	81.75149	-1011.24738	-292.98083	40.12557	-1055.82874	-466.22543	85.83447																								 
92	0.910	-921.91632	-157.58415	1597.71863	-1054.06384	-145.35248	1602.60608	-915.02216	-28.75754	1558.05029	-1045.68323	-21.53216	1562.00891	-971.12488	10.61218	1396.77515	-974.04773	43.41385	1082.44507	-977.87372	-109.79195	1319.23889	-965.62830	-154.31868	1155.55359	-1056.24536	69.35839	1216.57935	-822.66693	-72.06841	1362.99707	-742.04083	-113.77069	1181.96216	-729.16913	-166.23009	1071.21643	-745.79419	-255.62015	980.22156	-793.53546	-332.15579	897.90063	-740.25909	-319.83566	886.25964	-761.08740	-382.08740	834.54388	-1134.64453	-49.79945	1340.16992	-1203.03918	-13.39453	1119.62268	-1219.73474	-6.81479	1007.73059	-1228.89014	12.96497	872.18713	-1205.07361	2.79832	768.73328	-1241.13586	42.94627	776.36279	-1237.17761	41.74522	700.19946	-843.61023	-112.12769	923.62836	-1081.34753	-132.42029	918.33643	-912.13849	43.42428	945.77374	-1059.48523	30.69264	942.80017	-812.57727	-6.32460	632.13354	-851.15350	33.20063	458.45203	-850.22400	138.76379	287.90848	-892.19232	218.37068	91.16417	-927.35071	266.92987	67.30394	-922.39667	77.77174	28.51621	-1136.67578	-135.18401	623.01422	-1097.10278	-224.76160	468.55972	-1106.56433	-262.74615	288.78088	-1068.94934	-342.36975	83.39022	-1012.76062	-316.57916	40.72884	-1056.24121	-489.00610	90.65221																								 
93	0.920	-922.72803	-170.32249	1596.03760	-1054.88281	-158.11687	1600.99219	-915.93585	-41.60827	1556.00403	-1046.30444	-34.44676	1559.98547	-972.49182	-2.53531	1394.79749	-975.72595	29.96140	1080.53857	-978.63440	-123.09873	1317.35803	-965.74652	-167.65448	1153.67139	-1057.52979	55.65867	1214.36157	-823.64056	-84.55368	1361.30981	-742.77863	-126.66916	1180.68530	-729.75836	-179.94536	1070.59424	-747.19427	-271.70511	982.41449	-795.95734	-350.53134	903.12738	-742.84473	-338.66196	890.44281	-764.15930	-402.66611	841.27216	-1135.68042	-63.57998	1338.27295	-1203.93689	-25.86833	1117.99133	-1220.83533	-17.99613	1006.20227	-1230.20398	3.72561	871.02936	-1206.18445	-4.37785	766.85815	-1242.73730	35.20270	775.64514	-1238.08582	35.87366	699.18134	-843.77277	-123.99171	921.95886	-1081.31287	-146.15736	916.30090	-914.25885	30.82469	943.97046	-1061.48291	17.00818	940.95905	-812.64655	-16.14100	631.39972	-850.73120	24.72158	457.64075	-849.78534	133.35466	288.84293	-891.63818	216.83240	93.60944	-926.62018	265.91040	70.74239	-922.34155	77.75726	28.27295	-1137.90820	-149.34978	621.73840	-1097.77563	-240.91039	468.51297	-1107.81873	-280.50101	288.99243	-1069.91663	-360.73190	83.62521	-1014.07813	-334.88159	40.39741	-1055.80701	-507.23492	92.50911																								 
94	0.930	-923.52222	-183.13947	1594.51733	-1055.77100	-170.99554	1599.56274	-916.90967	-54.62082	1554.15662	-1047.26550	-47.40018	1558.17273	-973.75342	-15.78472	1393.03320	-977.15356	16.41103	1078.74756	-979.49518	-136.57478	1315.61011	-966.11713	-181.14313	1151.93481	-1058.85779	41.93985	1212.32202	-824.61908	-97.13563	1359.77832	-743.50696	-139.38953	1179.37915	-730.45062	-193.44507	1069.91296	-748.59448	-287.21756	984.52612	-798.47009	-368.22592	908.26123	-745.36572	-356.69971	894.48145	-767.07587	-422.32050	847.89587	-1136.75732	-77.41363	1336.52222	-1204.99487	-38.45926	1116.50183	-1221.92737	-29.70792	1004.81146	-1231.50818	-6.21780	869.93555	-1207.64404	-12.86998	765.52649	-1244.20007	26.62826	774.96136	-1239.23706	29.02414	698.42279	-843.99408	-136.21452	920.38239	-1081.51855	-159.97130	914.58502	-916.24023	18.14735	942.39124	-1063.18420	3.32746	939.43793	-812.75122	-26.61126	630.57513	-850.09344	15.49630	456.70889	-849.17023	127.27307	289.80853	-890.82831	214.81093	96.31525	-925.78937	264.38382	74.51249	-922.34265	77.56206	28.13470	-1138.43823	-166.09222	621.82281	-1098.22449	-258.05988	469.43524	-1108.53784	-296.84393	288.66779	-1070.76001	-374.89523	82.83897	-1015.64374	-348.24991	39.10136	-1054.41699	-521.25153	90.94375																								 
95	0.940	-924.39978	-195.95190	1593.24048	-1056.65088	-183.90579	1598.40356	-917.87756	-67.62467	1552.40466	-1048.28137	-60.42920	1556.54321	-975.07208	-29.21334	1391.35901	-978.39410	2.63491	1077.15186	-980.45172	-150.19751	1314.09595	-966.76074	-194.72549	1150.42688	-1060.17432	28.12543	1210.54370	-825.61816	-109.92455	1358.47778	-744.23962	-151.83592	1178.07629	-731.17389	-206.53218	1069.17773	-749.99030	-302.13199	986.47119	-800.74554	-385.03665	913.07178	-747.82471	-373.91690	898.32611	-769.80579	-441.07959	854.32947	-1137.93811	-91.22663	1335.01038	-1206.16479	-51.17505	1115.16162	-1222.97290	-41.81964	1003.48413	-1232.79553	-16.73223	868.93970	-1209.03845	-22.01422	764.34326	-1245.73474	17.28901	774.36560	-1240.43958	21.33007	697.80377	-844.54340	-148.72284	918.79907	-1082.08008	-174.01552	913.41925	-917.84332	4.97572	940.91791	-1064.54016	-10.41794	938.14673	-812.79999	-37.81852	629.57233	-849.34308	5.39398	455.70776	-848.41406	120.53991	290.76712	-889.82141	212.63599	99.44479	-924.42743	262.86166	79.02412	-922.25818	77.37574	28.02015	-1138.90735	-184.47275	622.98395	-1098.57202	-276.08331	471.04361	-1109.21765	-312.27280	288.11795	-1071.06055	-385.84888	80.70364	-1016.76245	-357.17212	37.25874	-1052.49292	-531.58429	86.30209																								 
